<svg width="37" height="37" viewBox="0 0 37 37" fill="none" xmlns="http://www.w3.org/2000/svg">
<path d="M18.4668 0.677429C28.4079 0.677429 36.4668 8.7363 36.4668 18.6774C36.4668 28.6186 28.4079 36.6774 18.4668 36.6774C8.52566 36.6774 0.466797 28.6186 0.466797 18.6774C0.466797 8.7363 8.52566 0.677429 18.4668 0.677429ZM18.4668 33.547C26.679 33.547 33.3364 26.8897 33.3364 18.6774C33.3364 10.4652 26.6791 3.80785 18.4668 3.80785C10.2546 3.80785 3.59721 10.4652 3.59721 18.6774C3.60699 26.8857 10.2585 33.5372 18.4658 33.547H18.4668L18.4668 33.547ZM12.1073 27.2502L9.89409 25.0369L24.8262 10.1048L27.0395 12.318L12.1073 27.2502ZM24.8263 27.2502L9.89412 12.3179L12.1073 10.1047L27.0395 25.0368L24.8263 27.2502Z" fill="white"/>
</svg>
