<svg width="37" height="37" viewBox="0 0 37 37" fill="none" xmlns="http://www.w3.org/2000/svg">
<path d="M18.4606 0.677429C28.4018 0.677429 36.4606 8.7363 36.4606 18.6774C36.4606 28.6186 28.4018 36.6774 18.4606 36.6774C8.5195 36.6774 0.460632 28.6186 0.460632 18.6774C0.460632 8.7363 8.5195 0.677429 18.4606 0.677429ZM18.4606 33.547C26.6729 33.547 33.3302 26.8897 33.3302 18.6774C33.3302 10.4652 26.6729 3.80785 18.4606 3.80785C10.2484 3.80785 3.59105 10.4652 3.59105 18.6774C3.60082 26.8857 10.2523 33.5372 18.4597 33.547H18.4606L18.4606 33.547ZM12.1011 27.2502L9.88792 25.0369L24.82 10.1048L27.0333 12.318L12.1011 27.2502ZM24.8201 27.2502L9.88796 12.3179L12.1012 10.1047L27.0333 25.0368L24.8201 27.2502Z" fill="white"/>
</svg>
